<svg id="visual" viewBox="0 0 900 900" width="900" height="900" xmlns="http://www.w3.org/2000/svg" xmlns:xlink="http://www.w3.org/1999/xlink" version="1.1"><path d="M359 0L255 129L254 257L262 386L338 514L345 643L285 771L260 900L0 900L0 771L0 643L0 514L0 386L0 257L0 129L0 0Z" fill="#9c7a97"></path><path d="M183 0L261 129L213 257L296 386L261 514L284 643L303 771L262 900L0 900L0 771L0 643L0 514L0 386L0 257L0 129L0 0Z" fill="#6a6e8a"></path><path d="M154 0L140 129L151 257L216 386L210 514L132 643L194 771L202 900L0 900L0 771L0 643L0 514L0 386L0 257L0 129L0 0Z" fill="#465e6d"></path><path d="M98 0L103 129L161 257L168 386L108 514L99 643L134 771L112 900L0 900L0 771L0 643L0 514L0 386L0 257L0 129L0 0Z" fill="#374b4c"></path><path d="M66 0L80 129L109 257L56 386L90 514L84 643L41 771L52 900L0 900L0 771L0 643L0 514L0 386L0 257L0 129L0 0Z" fill="#303633"></path></svg>