<svg id="visual" viewBox="0 0 250 900" width="250" height="900" xmlns="http://www.w3.org/2000/svg" xmlns:xlink="http://www.w3.org/1999/xlink" version="1.1"><path d="M98 0L93.8 21.5C89.7 43 81.3 86 81.5 128.8C81.7 171.7 90.3 214.3 89.2 257.2C88 300 77 343 74.3 385.8C71.7 428.7 77.3 471.3 80 514.2C82.7 557 82.3 600 83 642.8C83.7 685.7 85.3 728.3 83.2 771.2C81 814 75 857 72 878.5L69 900L0 900L0 878.5C0 857 0 814 0 771.2C0 728.3 0 685.7 0 642.8C0 600 0 557 0 514.2C0 471.3 0 428.7 0 385.8C0 343 0 300 0 257.2C0 214.3 0 171.7 0 128.8C0 86 0 43 0 21.5L0 0Z" fill="#a60af5"></path><path d="M53 0L57.8 21.5C62.7 43 72.3 86 72.5 128.8C72.7 171.7 63.3 214.3 60.5 257.2C57.7 300 61.3 343 62 385.8C62.7 428.7 60.3 471.3 59.5 514.2C58.7 557 59.3 600 63 642.8C66.7 685.7 73.3 728.3 76.8 771.2C80.3 814 80.7 857 80.8 878.5L81 900L0 900L0 878.5C0 857 0 814 0 771.2C0 728.3 0 685.7 0 642.8C0 600 0 557 0 514.2C0 471.3 0 428.7 0 385.8C0 343 0 300 0 257.2C0 214.3 0 171.7 0 128.8C0 86 0 43 0 21.5L0 0Z" fill="#0086ff"></path><path d="M65 0L65.2 21.5C65.3 43 65.7 86 62.3 128.8C59 171.7 52 214.3 47.8 257.2C43.7 300 42.3 343 44.3 385.8C46.3 428.7 51.7 471.3 51.2 514.2C50.7 557 44.3 600 45.5 642.8C46.7 685.7 55.3 728.3 57 771.2C58.7 814 53.3 857 50.7 878.5L48 900L0 900L0 878.5C0 857 0 814 0 771.2C0 728.3 0 685.7 0 642.8C0 600 0 557 0 514.2C0 471.3 0 428.7 0 385.8C0 343 0 300 0 257.2C0 214.3 0 171.7 0 128.8C0 86 0 43 0 21.5L0 0Z" fill="#00b4ff"></path><path d="M46 0L42.5 21.5C39 43 32 86 30.5 128.8C29 171.7 33 214.3 37 257.2C41 300 45 343 45.7 385.8C46.3 428.7 43.7 471.3 42.3 514.2C41 557 41 600 42.5 642.8C44 685.7 47 728.3 45 771.2C43 814 36 857 32.5 878.5L29 900L0 900L0 878.5C0 857 0 814 0 771.2C0 728.3 0 685.7 0 642.8C0 600 0 557 0 514.2C0 471.3 0 428.7 0 385.8C0 343 0 300 0 257.2C0 214.3 0 171.7 0 128.8C0 86 0 43 0 21.5L0 0Z" fill="#37ced5"></path><path d="M30 0L27.5 21.5C25 43 20 86 17.8 128.8C15.7 171.7 16.3 214.3 16.2 257.2C16 300 15 343 17.2 385.8C19.3 428.7 24.7 471.3 27.3 514.2C30 557 30 600 27.8 642.8C25.7 685.7 21.3 728.3 20.7 771.2C20 814 23 857 24.5 878.5L26 900L0 900L0 878.5C0 857 0 814 0 771.2C0 728.3 0 685.7 0 642.8C0 600 0 557 0 514.2C0 471.3 0 428.7 0 385.8C0 343 0 300 0 257.2C0 214.3 0 171.7 0 128.8C0 86 0 43 0 21.5L0 0Z" fill="#a7d9b1"></path></svg>